<?xml version="1.0" encoding="utf-8"?>
<!-- Generator: Adobe Illustrator 25.4.1, SVG Export Plug-In . SVG Version: 6.00 Build 0)  -->
<svg version="1.1" id="Layer_1" xmlns="http://www.w3.org/2000/svg" xmlns:xlink="http://www.w3.org/1999/xlink" x="0px" y="0px"
	 viewBox="0 0 500 500" style="enable-background:new 0 0 500 500;" xml:space="preserve">
<style type="text/css">
	.st0{fill:#3B3BE2;}
	.st1{fill:#1F0C57;}
</style>
<rect class="st0" width="500" height="500"/>
<g transform="rotate(0 171.698 258.4254)">
	<g transform="matrix(1 0 0 1 0 0)">
		<path id="id-D6z1nYkh6" class="st1" d="M196.7,262.8L196.7,262.8c0.2,0.3,0.2,0.6,0.2,0.9l0,0c0,0.6-0.2,1-0.6,1.4
			c-0.4,0.4-0.9,0.6-1.5,0.6l0,0c-0.4,0-0.8-0.1-1.1-0.3c-0.3-0.2-0.6-0.5-0.8-0.8l0,0c-0.7-1.4-1.3-3.1-1.8-5.1
			c-0.5-2-1-4.3-1.4-6.8c-0.4-2.5-0.7-5.2-0.9-8.1c-0.2-2.9-0.4-5.9-0.6-9l0,0c-2.7,0.4-5.8,0.8-9.3,1.2c-3.4,0.5-7.3,1-11.8,1.6
			l0,0c-3.1,0.4-6.2,0.8-9.4,1.2l0,0c-7.9,8.6-16.1,15-24.8,19.5c-8.7,4.4-17.4,6.7-26.1,6.7l0,0c-3.9,0-7.3-0.4-10.1-1.1
			c-2.8-0.8-5.2-1.6-7-2.5c-1.8-0.9-3.2-1.8-4.2-2.6s-1.4-1.2-1.5-1.3l0,0c-0.4-0.4-0.5-0.8-0.5-1.4l0,0c0-0.6,0.2-1.1,0.6-1.5
			c0.4-0.4,0.9-0.6,1.4-0.6l0,0c0.6,0,1.1,0.2,1.6,0.7l0,0c0.1,0.1,0.5,0.5,1.3,1.1c0.8,0.7,2,1.4,3.6,2.2c1.6,0.8,3.6,1.5,6.1,2.1
			c2.5,0.6,5.4,0.9,8.8,0.9l0,0c4.6,0,9-0.6,13.3-1.9c4.2-1.3,8.2-2.9,12-4.9c3.8-2,7.3-4.3,10.5-6.9c3.3-2.6,6.2-5.2,8.9-7.8l0,0
			c-2.6,0.2-5.2,0.4-7.8,0.5c-2.6,0.1-5.1,0.2-7.6,0.2l0,0c-4.9,0-9.6-0.3-14-0.8c-4.4-0.6-8.3-1.5-11.7-2.8c-3.4-1.3-6.1-3-8.1-5.2
			c-2-2.2-3-4.9-3-8.1l0,0c0-1.5,0.3-2.9,0.9-4.4c0.6-1.5,1.3-2.8,2.2-4c0.8-1.2,1.7-2.2,2.6-2.9c0.9-0.8,1.7-1.1,2.4-1.1l0,0
			c0.5,0,1,0.2,1.4,0.5c0.5,0.4,0.7,0.9,0.7,1.5l0,0c0,0.3-0.1,0.7-0.2,1c-0.2,0.3-0.4,0.6-0.7,0.8l0,0c-0.1,0.1-0.4,0.3-0.9,0.8
			c-0.5,0.4-1.1,1-1.7,1.8c-0.6,0.8-1.2,1.6-1.7,2.7c-0.5,1.1-0.8,2.2-0.8,3.4l0,0c0,2.1,0.7,4,2.2,5.6c1.4,1.6,3.6,2.9,6.3,4
			c2.8,1.1,6.2,1.9,10.2,2.5c4,0.5,8.6,0.8,13.8,0.8l0,0c3,0,6.1-0.1,9.4-0.3c3.3-0.2,6.8-0.5,10.5-0.8l0,0c1.8-1.9,3.3-3.8,4.7-5.5
			c1.4-1.7,2.5-3.3,3.5-4.6l0,0c1.6-2.2,3.2-4.6,5-7.2c1.7-2.5,3.4-5.1,5.2-7.7c1.7-2.6,3.4-5.2,5-7.8c1.6-2.6,3.2-5,4.6-7.2
			c1.4-2.3,2.7-4.3,3.9-6.1c1.1-1.9,2.1-3.4,2.8-4.6l0,0c0.2-1,0.5-1.9,1-2.7c0.4-0.8,1.1-1.2,2.1-1.2l0,0c0.5,0,1.1,0.2,1.6,0.7
			c0.5,0.5,0.8,1.1,0.8,1.7l0,0c0,0.5-0.2,1.1-0.5,1.6c-0.4,0.6-0.7,1.1-1.1,1.5l0,0c-0.1,0.7-0.3,2.2-0.5,4.5
			c-0.2,2.3-0.5,5.1-0.7,8.3c-0.2,3.3-0.4,6.9-0.6,10.9c-0.2,3.9-0.3,7.9-0.3,12l0,0c0,1.5,0,3,0,4.5s0,3,0.1,4.5l0,0
			c5.5-0.7,9.5-1.2,12.1-1.5c2.5-0.3,3.9-0.4,4-0.4l0,0c0.5,0,1,0.2,1.4,0.6c0.5,0.4,0.7,0.9,0.7,1.5l0,0c0,0.5-0.2,1-0.5,1.4
			c-0.3,0.4-0.8,0.6-1.4,0.7l0,0c-0.7,0.1-1.4,0.2-2.3,0.3c-0.9,0.1-2,0.2-3.2,0.4c-1.3,0.2-2.8,0.3-4.5,0.5
			c-1.7,0.2-3.7,0.5-6.1,0.8l0,0c0.1,3,0.3,5.9,0.5,8.7c0.2,2.8,0.5,5.4,0.9,7.8c0.3,2.4,0.8,4.5,1.2,6.4
			C195.5,260,196.1,261.6,196.7,262.8z M166.7,234.4L166.7,234.4c4.3-0.6,8.3-1.1,11.8-1.6c3.5-0.5,6.7-0.9,9.6-1.2l0,0
			c0-1.6-0.1-3.2-0.1-4.7c0-1.6,0-3.2,0-4.8l0,0c0-5.2,0.1-10.1,0.3-14.8c0.2-4.7,0.5-8.8,0.8-12.3l0,0c-1.5,2.3-3.1,4.9-4.9,7.7
			c-1.8,2.8-3.6,5.7-5.5,8.6c-1.9,2.9-3.8,5.8-5.8,8.7c-2,2.9-3.8,5.5-5.6,8l0,0c-0.9,1.2-1.8,2.5-2.7,3.6c-0.9,1.2-1.8,2.3-2.8,3.5
			l0,0c0.8-0.1,1.6-0.2,2.4-0.3S165.9,234.5,166.7,234.4z M221.4,258.1L221.4,258.1c0.6-1.1,1.3-2.5,2.1-4.1
			c0.8-1.6,1.7-3.3,2.7-4.9c0.9-1.7,1.9-3.2,2.8-4.7c0.9-1.5,1.7-2.6,2.3-3.4l0,0c1.1-1.3,2.2-2.2,3.3-2.8c1.1-0.5,2.2-0.8,3.1-0.8
			l0,0c1,0,1.8,0.2,2.5,0.6c0.7,0.4,1.2,1,1.7,1.6c0.4,0.7,0.8,1.5,1,2.4c0.2,0.9,0.3,1.9,0.3,2.9l0,0c0,0.6,0,1.4-0.1,2.3
			c-0.1,1-0.1,2-0.2,3.1c-0.1,1.1-0.1,2.2-0.2,3.4c-0.1,1.2-0.1,2.3-0.1,3.3l0,0c0.6-1.1,1.2-2.3,1.9-3.7c0.7-1.3,1.4-2.7,2.1-4
			c0.7-1.3,1.4-2.6,2.1-3.7c0.7-1.2,1.3-2.1,1.8-2.8l0,0c1.6-2.2,3.1-3.6,4.4-4.3c1.4-0.7,2.6-1.1,3.7-1.1l0,0
			c1.2,0,2.3,0.2,3.1,0.7c0.8,0.5,1.4,1.1,1.9,1.8c0.5,0.7,0.8,1.5,1,2.4c0.2,0.9,0.3,1.7,0.3,2.5l0,0c0,1.2-0.1,2.5-0.3,3.9
			c-0.2,1.4-0.3,3-0.3,4.8l0,0c0,0.8,0,1.5,0.1,2.3s0.2,1.4,0.5,2c0.2,0.6,0.6,1.1,1.1,1.4c0.5,0.4,1.2,0.6,2.1,0.6l0,0
			c0.9,0,1.9-0.3,2.8-0.8c0.9-0.5,1.8-1.1,2.6-1.9c0.8-0.8,1.6-1.7,2.4-2.8c0.8-1,1.4-2,2.1-3.1c0.6-1,1.2-2,1.7-3
			c0.5-0.9,0.9-1.7,1.2-2.4l0,0c0.2-0.4,0.4-0.7,0.8-0.9c0.3-0.2,0.7-0.3,1.1-0.3l0,0c0.6,0,1.1,0.2,1.5,0.7
			c0.4,0.5,0.6,0.9,0.6,1.5l0,0c0,0.2,0,0.5-0.1,0.8l0,0c-0.2,0.3-0.5,0.9-0.9,1.9c-0.4,0.9-1,2-1.7,3.2c-0.7,1.2-1.6,2.4-2.6,3.8
			c-1,1.3-2,2.5-3.2,3.6c-1.2,1.1-2.5,2-3.8,2.8c-1.4,0.7-2.8,1.1-4.3,1.1l0,0c-1.6,0-2.9-0.3-3.9-0.8c-1-0.6-1.8-1.3-2.4-2.3
			c-0.6-1-1-2.1-1.2-3.3c-0.2-1.3-0.3-2.6-0.3-3.9l0,0c0-1.8,0.1-3.5,0.3-5s0.3-2.7,0.3-3.6l0,0c0-0.9-0.1-1.6-0.3-2.1
			c-0.2-0.5-0.4-0.8-0.6-1c-0.2-0.2-0.5-0.3-0.7-0.3c-0.2,0-0.4,0-0.5,0l0,0c-0.9,0-1.8,0.5-2.8,1.5c-1,1-2,2.3-3,3.9
			c-1,1.6-2.1,3.4-3.2,5.5c-1.1,2-2.2,4.1-3.3,6.3l0,0c-0.6,1.2-1.1,2.1-1.6,2.9c-0.4,0.8-0.8,1.4-1.2,1.8c-0.4,0.4-0.8,0.7-1.1,0.9
			c-0.4,0.2-0.8,0.3-1.2,0.3l0,0c-0.9,0-1.7-0.3-2.2-1c-0.5-0.7-0.7-1.5-0.7-2.6l0,0c0-0.6,0-1.3,0.1-2.2c0-0.9,0.1-1.9,0.1-3
			s0.1-2.2,0.2-3.4c0.1-1.2,0.1-2.3,0.1-3.4c0-1.1,0.1-2.1,0.1-2.9c0-0.8,0.1-1.5,0.1-1.9l0,0c0-1-0.2-1.6-0.5-2.1
			c-0.3-0.4-0.7-0.6-1.2-0.6l0,0c-0.4,0-0.9,0.2-1.4,0.5c-0.5,0.3-1.1,0.9-1.7,1.7l0,0c-0.5,0.7-1.2,1.6-1.9,2.9s-1.6,2.7-2.5,4.2
			c-0.9,1.5-1.8,3.1-2.6,4.7c-0.9,1.6-1.6,3.1-2.2,4.4l0,0c-0.8,1.5-1.5,2.6-2.3,3.2c-0.8,0.6-1.5,0.8-2.3,0.8l0,0
			c-1.1,0-1.8-0.3-2.4-1c-0.5-0.6-0.8-1.5-0.8-2.6l0,0c0-0.1,0-0.8,0.1-2c0.1-1.2,0.1-2.7,0.2-4.4c0.1-1.7,0.2-3.6,0.2-5.6
			c0.1-2,0.2-3.8,0.3-5.6l0,0c0-0.9,0-1.8-0.1-2.5c-0.1-0.8-0.3-1.2-0.4-1.4l0,0c-0.3,0.1-0.9,0.7-1.7,2c-0.9,1.3-2,3.5-3.3,6.7l0,0
			c-0.2,0.4-0.5,0.7-0.8,0.9c-0.4,0.2-0.8,0.3-1.2,0.3l0,0c-0.6,0-1.1-0.2-1.5-0.6c-0.4-0.4-0.6-0.9-0.6-1.5l0,0
			c0-0.3,0.1-0.5,0.2-0.8l0,0c1.7-3.9,3.2-6.8,4.7-8.7c1.5-1.9,3-2.8,4.4-2.8l0,0c0.8,0,1.6,0.2,2.1,0.6c0.6,0.4,1,0.9,1.3,1.5
			c0.3,0.6,0.6,1.3,0.7,2.1c0.2,0.8,0.2,1.5,0.2,2.3l0,0c0,3.3-0.1,6.3-0.3,9C221.7,252.7,221.5,255.4,221.4,258.1z M309,247.7
			L309,247.7c0,3.4-0.6,6.3-1.8,8.7c-1.2,2.4-2.7,4.2-4.5,5.4l0,0h0.2c2.2,0,4.1-0.5,5.9-1.5c1.8-1,3.4-2.2,4.8-3.7
			c1.4-1.5,2.7-3.2,3.8-5.1c1.1-1.9,2.2-3.7,3-5.5l0,0c0.2-0.4,0.5-0.7,0.8-0.9c0.4-0.2,0.7-0.3,1.1-0.3l0,0c0.6,0,1.1,0.2,1.5,0.6
			c0.4,0.4,0.6,0.9,0.6,1.4l0,0c0,0.3-0.1,0.6-0.2,0.8l0,0c-1,2.1-2.1,4.3-3.4,6.4c-1.3,2.1-2.9,4.1-4.6,5.8
			c-1.8,1.7-3.7,3.1-5.9,4.2c-2.2,1.1-4.7,1.6-7.3,1.6l0,0c-2,0-3.8-0.3-5.7-0.9c-1.8-0.6-3.5-1.5-4.8-2.8l0,0
			c-0.5-0.4-1-0.8-1.3-1.3c-0.4-0.5-0.7-0.9-0.9-1.3l0,0c-0.1-0.1-0.1-0.2-0.1-0.2l0,0c-0.2-0.3-0.3-0.7-0.3-1l0,0
			c0-0.5,0.2-0.9,0.5-1.3l0,0c0-0.1,0.1-0.1,0.1-0.1c0,0,0.1,0,0.1-0.1l0,0c0.4-0.3,0.8-0.5,1.2-0.5l0,0h0.2c0.2,0,0.3,0,0.4,0.1
			l0,0c0,0,0.1,0,0.1,0c0,0,0,0,0.1,0l0,0c0.1,0,0.2,0,0.4,0.1l0,0c0,0,0.1,0.1,0.1,0.1l0,0c0.3,0.2,0.6,0.5,0.8,0.8l0,0
			c0.2,0.4,0.5,0.8,0.9,1.2l0,0c0.3,0.3,0.6,0.6,1,0.8c0.4,0.2,0.9,0.4,1.4,0.4l0,0c0.9,0,1.8-0.3,2.7-0.8c0.9-0.6,1.7-1.4,2.5-2.4
			c0.7-1,1.3-2.3,1.8-3.7c0.5-1.5,0.7-3.1,0.7-4.9l0,0c0-1.3-0.1-2.4-0.4-3.4c-0.3-0.9-0.6-1.7-1.1-2.3c-0.4-0.6-0.9-1-1.3-1.3
			c-0.5-0.3-0.9-0.4-1.4-0.4l0,0c-1,0-2,0.5-3,1.6c-1,1-2,2.3-3,3.9c-1,1.6-2,3.3-3,5.2c-1,1.9-1.9,3.8-2.9,5.6l0,0
			c-0.1,5.9-0.2,11.6-0.3,17c-0.1,5.4-0.3,10.4-0.6,15c-0.3,4.6-0.8,8.8-1.3,12.6c-0.5,3.7-1.3,6.9-2.3,9.6c-1,2.7-2.1,4.7-3.5,6.1
			c-1.4,1.4-3.1,2.1-5.1,2.1l0,0c-0.6,0-1.3-0.1-2.1-0.4c-0.8-0.3-1.6-0.8-2.3-1.6c-0.7-0.8-1.3-1.9-1.8-3.4
			c-0.5-1.5-0.7-3.4-0.7-5.9l0,0c0-3.1,0.4-6.7,1.2-10.9c0.8-4.1,1.9-8.5,3.3-13.1c1.4-4.6,3.1-9.3,5-14.2c1.9-4.8,4.1-9.5,6.4-14.2
			l0,0c0-1.3,0-2.5,0-3.8c0-1.3,0-2.5,0-3.6l0,0c-0.5,0.5-1,0.8-1.7,0.8l0,0c-0.6,0-1.1-0.2-1.5-0.6c-0.4-0.5-0.5-0.9-0.5-1.4l0,0
			c0-0.3,0-0.5,0.1-0.8l0,0c0.9-2,1.6-3.9,2.1-5.8c0.5-1.8,0.8-3.4,1.1-4.8c0.2-1.4,0.4-2.5,0.4-3.3c0-0.8,0.1-1.2,0.1-1.3l0,0
			c0-0.5,0.2-1,0.6-1.4c0.4-0.4,0.9-0.6,1.5-0.6l0,0c0.5,0,1,0.2,1.4,0.6c0.4,0.4,0.6,0.9,0.6,1.4l0,0v16.9c0.8-1.4,1.7-2.8,2.5-4.2
			c0.8-1.4,1.7-2.7,2.6-3.7c0.9-1.1,2-2,3-2.7c1.1-0.7,2.3-1,3.6-1l0,0c1.2,0,2.4,0.3,3.4,0.9c1,0.6,1.9,1.4,2.6,2.4
			c0.7,1,1.3,2.3,1.7,3.7C308.8,244.6,309,246.1,309,247.7z M284.5,265.4L284.5,265.4c-1.8,4-3.4,8.1-4.9,12.2
			c-1.4,4.1-2.7,8-3.7,11.8c-1,3.8-1.8,7.3-2.3,10.6c-0.5,3.3-0.8,6.2-0.8,8.7l0,0c0,0.6,0,1.3,0.1,2c0.1,0.8,0.2,1.4,0.5,2.1
			s0.5,1.1,0.9,1.6c0.4,0.4,0.9,0.6,1.6,0.6l0,0c1.2,0,2.2-0.8,3.1-2.3c0.9-1.5,1.6-3.6,2.2-6.2c0.6-2.6,1.1-5.6,1.5-8.9
			c0.4-3.4,0.7-6.9,1-10.5c0.2-3.7,0.4-7.4,0.5-11.1C284.4,272.2,284.5,268.7,284.5,265.4z M351.9,247.8L351.9,247.8
			c-0.4,0.8-0.9,1.8-1.5,3c-0.6,1.2-1.3,2.4-2.1,3.6c-0.8,1.3-1.6,2.5-2.6,3.7c-0.9,1.2-2,2.3-3.1,3.3c-1.1,1-2.3,1.8-3.6,2.4
			c-1.3,0.6-2.6,0.9-4,0.9l0,0c-2.2,0-4.1-0.7-5.7-2.1c-1.6-1.4-2.9-3.1-4-5.3c-1.1-2.2-2-4.7-2.7-7.5c-0.7-2.8-1.2-5.7-1.6-8.6
			c-0.4-2.9-0.6-5.8-0.7-8.5c-0.1-2.8-0.2-5.2-0.2-7.3l0,0c0-3.1,0.1-6.3,0.3-9.6c0.2-3.3,0.5-6.5,1-9.7c0.5-3.2,1-6.1,1.7-9
			c0.7-2.8,1.5-5.3,2.4-7.4c0.9-2.1,2-3.8,3.2-5c1.2-1.3,2.6-1.9,4.1-1.9l0,0c1.2,0,2.3,0.3,3.3,0.9c1,0.6,1.8,1.5,2.5,2.8
			c0.7,1.3,1.2,3,1.5,5c0.4,2,0.6,4.6,0.6,7.6l0,0c0,3.7-0.4,7.5-1.2,11.4c-0.8,3.9-1.8,7.8-3.2,11.8c-1.3,4-2.9,7.9-4.7,11.9
			c-1.8,3.9-3.7,7.8-5.8,11.5l0,0c0.9,4.7,2.2,8.3,3.7,11c1.5,2.6,3.4,4,5.6,4l0,0c1.5,0,2.9-0.6,4.3-1.7c1.4-1.2,2.6-2.5,3.7-4.1
			c1.1-1.6,2.1-3.2,3-4.8c0.9-1.6,1.5-2.9,2-3.9l0,0c0.2-0.4,0.5-0.7,0.8-0.9c0.3-0.2,0.7-0.3,1.1-0.3l0,0c0.6,0,1.1,0.2,1.5,0.6
			c0.4,0.4,0.6,0.9,0.6,1.5l0,0C352.1,247.1,352,247.4,351.9,247.8z M324.3,225.7L324.3,225.7c0,2.3,0.1,4.6,0.2,6.8
			c0.1,2.2,0.2,4.2,0.4,6.2l0,0c1.5-3,3-6.1,4.4-9.5c1.4-3.4,2.6-6.8,3.7-10.2c1.1-3.4,1.9-6.9,2.6-10.3c0.6-3.4,1-6.6,1-9.7l0,0
			c0-4.3-0.3-7.5-1-9.3c-0.7-1.9-1.6-2.8-2.8-2.8l0,0c-0.8,0-1.5,0.5-2.3,1.6c-0.7,1.1-1.4,2.5-2,4.4c-0.6,1.8-1.2,4-1.7,6.5
			c-0.5,2.5-1,5.2-1.3,8c-0.4,2.9-0.6,5.9-0.8,9C324.4,219.5,324.3,222.6,324.3,225.7z M354.7,257L354.7,257c0.8,1.1,1.8,1.9,3,2.6
			c1.2,0.6,2.7,1,4.5,1l0,0c1.8,0,3.4-0.4,4.9-1.3c1.5-0.9,2.8-2,4-3.4c1.2-1.4,2.3-3,3.2-4.7c1-1.7,1.8-3.4,2.6-5.2l0,0
			c0.2-0.4,0.4-0.7,0.8-0.9c0.3-0.2,0.7-0.3,1.1-0.3l0,0c0.6,0,1.1,0.2,1.5,0.6c0.4,0.4,0.6,0.9,0.6,1.4l0,0c0,0.2,0,0.3-0.1,0.5
			c0,0.1-0.1,0.3-0.2,0.4l0,0c-2.5,5.6-5.3,9.8-8.3,12.6c-3,2.8-6.4,4.3-10.2,4.4l0,0c-2.4,0-4.5-0.5-6.3-1.4
			c-1.8-0.9-3.2-2.2-4.4-3.6c-1.1-1.5-2-3.2-2.5-5c-0.6-1.9-0.8-3.7-0.8-5.6l0,0c0-1.9,0.2-3.6,0.7-5.2c0.5-1.6,1.1-3,2-4.1
			c0.9-1.2,1.9-2.1,3.1-2.8c1.2-0.7,2.5-1,3.9-1l0,0c0.8,0,1.7,0.2,2.5,0.5c0.8,0.3,1.6,0.8,2.2,1.5c0.7,0.7,1.2,1.4,1.6,2.3
			c0.4,0.9,0.6,2,0.6,3.2l0,0c0,1.5-0.3,2.9-0.8,4.2c-0.5,1.3-1.2,2.5-2.1,3.7c-0.9,1.1-2,2.2-3.2,3.1
			C357.5,255.5,356.2,256.3,354.7,257z M353.1,253.4L353.1,253.4c1.1-0.5,2.2-1.1,3.1-1.8c0.9-0.7,1.7-1.5,2.4-2.4
			c0.7-0.9,1.2-1.8,1.5-2.8c0.4-1,0.6-2,0.6-2.9l0,0c0-1.1-0.3-1.9-0.8-2.5c-0.5-0.6-1.2-0.8-1.9-0.8l0,0c-1,0-1.8,0.3-2.5,0.8
			s-1.3,1.3-1.7,2.1c-0.5,0.9-0.8,1.9-1,3c-0.2,1.1-0.3,2.1-0.3,3.2l0,0c0,0.7,0.1,1.4,0.2,2.1C352.7,252.1,352.9,252.8,353.1,253.4
			z M402.3,257L402.3,257c-0.9,0-1.7-0.1-2.4-0.2l0,0c-0.5,1.1-1.2,2.1-2,3.1c-0.8,0.9-1.7,1.8-2.7,2.5c-1,0.7-2.1,1.2-3.4,1.6
			c-1.2,0.4-2.6,0.6-4.1,0.6l0,0c-1.7,0-3.3-0.3-4.7-0.9c-1.4-0.6-2.7-1.5-3.7-2.5c-1.1-1.1-1.9-2.4-2.5-3.9s-0.9-3.2-0.9-5l0,0
			c0-2.3,0.4-4.4,1.3-6.1c0.8-1.7,1.8-3.2,2.9-4.4c1.1-1.1,2.2-2,3.3-2.6c1.1-0.6,1.9-0.8,2.5-0.8l0,0c0.6,0,1.1,0.2,1.4,0.5
			c0.3,0.3,0.5,0.8,0.5,1.3l0,0c0,0.6-0.2,1.1-0.6,1.4c-0.4,0.3-0.9,0.6-1.5,0.9l0,0c-0.6,0.3-1.2,0.7-1.9,1.2
			c-0.7,0.5-1.3,1.2-1.8,2c-0.6,0.8-1.1,1.8-1.4,2.8c-0.4,1.1-0.6,2.3-0.6,3.7l0,0c0,1.2,0.2,2.3,0.6,3.4c0.4,1.1,0.9,2,1.6,2.7
			c0.7,0.8,1.5,1.3,2.5,1.8c1,0.4,2,0.6,3.2,0.6l0,0c2.1,0,3.8-0.5,5.2-1.5c1.4-1,2.4-2.2,3.2-3.7l0,0c-2.2-1.1-3.9-2.7-5.3-4.8
			c-1.4-2.1-2.1-4.5-2.1-7l0,0c0-2.1,0.5-3.8,1.5-5.1c1-1.3,2.3-2,4-2l0,0c1,0,1.9,0.2,2.8,0.7c0.9,0.5,1.7,1.2,2.3,2.3
			c0.7,1,1.2,2.4,1.6,4c0.4,1.6,0.6,3.5,0.6,5.8l0,0c0,1.2-0.2,2.4-0.5,3.7l0,0c0.2,0,0.5,0.1,0.7,0.1c0.2,0,0.4,0,0.7,0l0,0
			c1.2,0,2.4-0.2,3.4-0.5c1-0.3,1.9-0.7,2.7-1.3c0.8-0.6,1.5-1.3,2.2-2.3c0.6-0.9,1.2-2,1.8-3.2l0,0c0.1-0.2,0.4-0.4,0.7-0.6
			c0.4-0.2,0.7-0.3,1.1-0.3l0,0c0.5,0,0.9,0.2,1.4,0.6c0.4,0.4,0.6,0.9,0.6,1.5l0,0c0,0.3-0.1,0.6-0.2,1c-0.1,0.4-0.3,0.7-0.4,1l0,0
			c-0.6,1.1-1.3,2.2-2.2,3.2c-0.8,1-1.8,1.9-2.9,2.6c-1.1,0.8-2.4,1.4-3.8,1.8C405.6,256.8,404,257,402.3,257z M392.9,243.1
			L392.9,243.1c0,0.7,0.1,1.4,0.3,2.2c0.2,0.8,0.5,1.5,0.8,2.3c0.4,0.8,0.9,1.5,1.4,2.1c0.6,0.7,1.2,1.3,2,1.7l0,0
			c0.1-0.8,0.2-1.5,0.2-2.3l0,0c0-1-0.1-2-0.2-3c-0.1-1-0.3-2-0.6-2.8s-0.6-1.6-1-2.1c-0.4-0.5-0.9-0.8-1.4-0.8l0,0
			c-0.2,0-0.5,0.2-0.9,0.5C393.1,241.3,392.9,242,392.9,243.1z"/>
	</g>
</g>
</svg>
